<svg width="800" height="450" viewBox="0 0 800 450" fill="none" xmlns="http://www.w3.org/2000/svg">
<rect x="1.5" y="1.5" width="796" height="447" fill="#C7D2FE" fill-opacity="0.25" stroke="#17106D" stroke-width="3" stroke-dasharray="6 6"/>
<path d="M207.309 197.094H201.088C200.974 196.289 200.742 195.574 200.392 194.949C200.041 194.314 199.592 193.775 199.042 193.33C198.493 192.884 197.859 192.544 197.139 192.307C196.429 192.07 195.657 191.952 194.824 191.952C193.318 191.952 192.006 192.326 190.889 193.074C189.771 193.812 188.905 194.892 188.289 196.312C187.674 197.723 187.366 199.437 187.366 201.455C187.366 203.528 187.674 205.271 188.289 206.682C188.914 208.093 189.786 209.158 190.903 209.878C192.02 210.598 193.313 210.957 194.781 210.957C195.605 210.957 196.367 210.848 197.068 210.631C197.778 210.413 198.408 210.096 198.957 209.679C199.506 209.253 199.961 208.737 200.321 208.131C200.69 207.525 200.946 206.833 201.088 206.057L207.309 206.085C207.148 207.42 206.746 208.708 206.102 209.949C205.467 211.18 204.61 212.283 203.531 213.259C202.461 214.224 201.182 214.991 199.696 215.56C198.218 216.118 196.547 216.398 194.681 216.398C192.087 216.398 189.767 215.811 187.721 214.636C185.685 213.462 184.075 211.762 182.892 209.537C181.717 207.312 181.13 204.617 181.13 201.455C181.13 198.282 181.727 195.583 182.92 193.358C184.113 191.133 185.733 189.437 187.778 188.273C189.824 187.098 192.125 186.511 194.681 186.511C196.367 186.511 197.93 186.748 199.369 187.222C200.818 187.695 202.101 188.386 203.218 189.295C204.336 190.195 205.245 191.298 205.946 192.605C206.656 193.912 207.11 195.408 207.309 197.094ZM217.657 186.909V216H211.606V186.909H217.657ZM222.505 216V194.182H228.556V216H222.505ZM225.544 191.369C224.645 191.369 223.873 191.071 223.229 190.474C222.595 189.868 222.277 189.144 222.277 188.301C222.277 187.468 222.595 186.753 223.229 186.156C223.873 185.55 224.645 185.247 225.544 185.247C226.444 185.247 227.211 185.55 227.846 186.156C228.489 186.753 228.811 187.468 228.811 188.301C228.811 189.144 228.489 189.868 227.846 190.474C227.211 191.071 226.444 191.369 225.544 191.369ZM243.261 216.426C241.026 216.426 239.104 215.953 237.494 215.006C235.894 214.049 234.663 212.723 233.801 211.028C232.949 209.333 232.522 207.383 232.522 205.176C232.522 202.941 232.953 200.981 233.815 199.295C234.686 197.6 235.922 196.279 237.522 195.332C239.123 194.376 241.026 193.898 243.233 193.898C245.136 193.898 246.803 194.243 248.233 194.935C249.663 195.626 250.794 196.597 251.627 197.847C252.461 199.097 252.92 200.564 253.005 202.25H247.295C247.134 201.161 246.708 200.285 246.017 199.622C245.335 198.95 244.44 198.614 243.332 198.614C242.395 198.614 241.575 198.869 240.875 199.381C240.183 199.883 239.644 200.616 239.255 201.582C238.867 202.548 238.673 203.718 238.673 205.091C238.673 206.483 238.862 207.667 239.241 208.642C239.629 209.617 240.174 210.361 240.875 210.872C241.575 211.384 242.395 211.639 243.332 211.639C244.023 211.639 244.644 211.497 245.193 211.213C245.752 210.929 246.211 210.517 246.571 209.977C246.94 209.428 247.181 208.77 247.295 208.003H253.005C252.911 209.67 252.456 211.137 251.642 212.406C250.837 213.666 249.724 214.651 248.304 215.361C246.883 216.071 245.202 216.426 243.261 216.426ZM262.363 209.722L262.377 202.463H263.257L270.246 194.182H277.192L267.803 205.148H266.368L262.363 209.722ZM256.88 216V186.909H262.931V216H256.88ZM270.516 216L264.096 206.497L268.13 202.222L277.604 216H270.516ZM295.47 203.386V216H289.419V186.909H295.299V198.031H295.555C296.047 196.743 296.843 195.735 297.941 195.006C299.04 194.267 300.418 193.898 302.075 193.898C303.59 193.898 304.911 194.229 306.038 194.892C307.174 195.545 308.055 196.488 308.68 197.719C309.315 198.94 309.627 200.403 309.618 202.108V216H303.566V203.188C303.576 201.843 303.235 200.796 302.544 200.048C301.862 199.3 300.905 198.926 299.674 198.926C298.85 198.926 298.121 199.101 297.487 199.452C296.862 199.802 296.369 200.313 296.01 200.986C295.659 201.649 295.479 202.449 295.47 203.386ZM324.323 216.426C322.078 216.426 320.147 215.972 318.527 215.062C316.917 214.144 315.677 212.847 314.806 211.17C313.935 209.485 313.499 207.491 313.499 205.19C313.499 202.946 313.935 200.976 314.806 199.281C315.677 197.586 316.903 196.265 318.485 195.318C320.076 194.371 321.941 193.898 324.081 193.898C325.521 193.898 326.861 194.13 328.101 194.594C329.351 195.048 330.44 195.735 331.368 196.653C332.306 197.572 333.035 198.727 333.556 200.119C334.077 201.502 334.337 203.121 334.337 204.977V206.639H315.914V202.889H328.641C328.641 202.018 328.452 201.246 328.073 200.574C327.694 199.902 327.168 199.376 326.496 198.997C325.833 198.609 325.061 198.415 324.181 198.415C323.262 198.415 322.448 198.628 321.738 199.054C321.037 199.471 320.488 200.034 320.09 200.744C319.692 201.445 319.489 202.226 319.479 203.088V206.653C319.479 207.733 319.678 208.666 320.076 209.452C320.483 210.238 321.056 210.844 321.794 211.27C322.533 211.696 323.409 211.909 324.422 211.909C325.095 211.909 325.71 211.814 326.269 211.625C326.828 211.436 327.306 211.152 327.703 210.773C328.101 210.394 328.404 209.93 328.613 209.381L334.209 209.75C333.925 211.095 333.343 212.269 332.462 213.273C331.591 214.267 330.464 215.044 329.081 215.602C327.708 216.152 326.122 216.426 324.323 216.426ZM338.286 216V194.182H344.152V197.989H344.38C344.777 196.634 345.445 195.612 346.382 194.92C347.32 194.22 348.4 193.869 349.621 193.869C349.924 193.869 350.251 193.888 350.601 193.926C350.952 193.964 351.259 194.016 351.525 194.082V199.452C351.24 199.366 350.847 199.291 350.346 199.224C349.844 199.158 349.384 199.125 348.968 199.125C348.078 199.125 347.282 199.319 346.581 199.707C345.89 200.086 345.341 200.616 344.934 201.298C344.536 201.98 344.337 202.766 344.337 203.656V216H338.286ZM363.581 216.426C361.336 216.426 359.404 215.972 357.785 215.062C356.175 214.144 354.935 212.847 354.064 211.17C353.192 209.485 352.757 207.491 352.757 205.19C352.757 202.946 353.192 200.976 354.064 199.281C354.935 197.586 356.161 196.265 357.743 195.318C359.333 194.371 361.199 193.898 363.339 193.898C364.779 193.898 366.118 194.13 367.359 194.594C368.609 195.048 369.698 195.735 370.626 196.653C371.564 197.572 372.293 198.727 372.814 200.119C373.334 201.502 373.595 203.121 373.595 204.977V206.639H355.172V202.889H367.899C367.899 202.018 367.709 201.246 367.331 200.574C366.952 199.902 366.426 199.376 365.754 198.997C365.091 198.609 364.319 198.415 363.439 198.415C362.52 198.415 361.706 198.628 360.995 199.054C360.295 199.471 359.745 200.034 359.348 200.744C358.95 201.445 358.746 202.226 358.737 203.088V206.653C358.737 207.733 358.936 208.666 359.333 209.452C359.741 210.238 360.314 210.844 361.052 211.27C361.791 211.696 362.667 211.909 363.68 211.909C364.352 211.909 364.968 211.814 365.527 211.625C366.085 211.436 366.564 211.152 366.961 210.773C367.359 210.394 367.662 209.93 367.87 209.381L373.467 209.75C373.183 211.095 372.6 212.269 371.72 213.273C370.849 214.267 369.722 215.044 368.339 215.602C366.966 216.152 365.38 216.426 363.581 216.426ZM398.407 194.182V198.727H385.267V194.182H398.407ZM388.25 188.955H394.301V209.295C394.301 209.854 394.387 210.29 394.557 210.602C394.728 210.905 394.964 211.118 395.267 211.241C395.58 211.365 395.94 211.426 396.347 211.426C396.631 211.426 396.915 211.402 397.199 211.355C397.483 211.298 397.701 211.256 397.853 211.227L398.804 215.73C398.501 215.825 398.075 215.934 397.526 216.057C396.977 216.189 396.309 216.27 395.523 216.298C394.065 216.355 392.786 216.161 391.688 215.716C390.599 215.271 389.751 214.58 389.145 213.642C388.539 212.705 388.241 211.521 388.25 210.091V188.955ZM411.972 216.426C409.766 216.426 407.857 215.957 406.248 215.02C404.647 214.073 403.411 212.757 402.54 211.071C401.669 209.376 401.233 207.411 401.233 205.176C401.233 202.922 401.669 200.953 402.54 199.267C403.411 197.572 404.647 196.256 406.248 195.318C407.857 194.371 409.766 193.898 411.972 193.898C414.178 193.898 416.082 194.371 417.682 195.318C419.292 196.256 420.533 197.572 421.404 199.267C422.275 200.953 422.711 202.922 422.711 205.176C422.711 207.411 422.275 209.376 421.404 211.071C420.533 212.757 419.292 214.073 417.682 215.02C416.082 215.957 414.178 216.426 411.972 216.426ZM412 211.739C413.004 211.739 413.842 211.455 414.515 210.886C415.187 210.309 415.694 209.523 416.034 208.528C416.385 207.534 416.56 206.402 416.56 205.134C416.56 203.865 416.385 202.733 416.034 201.739C415.694 200.744 415.187 199.958 414.515 199.381C413.842 198.803 413.004 198.514 412 198.514C410.987 198.514 410.135 198.803 409.444 199.381C408.762 199.958 408.246 200.744 407.895 201.739C407.554 202.733 407.384 203.865 407.384 205.134C407.384 206.402 407.554 207.534 407.895 208.528C408.246 209.523 408.762 210.309 409.444 210.886C410.135 211.455 410.987 211.739 412 211.739ZM443.943 216.355C442.286 216.355 440.785 215.929 439.44 215.077C438.105 214.215 437.044 212.951 436.258 211.284C435.482 209.608 435.093 207.553 435.093 205.119C435.093 202.619 435.496 200.541 436.301 198.884C437.106 197.217 438.176 195.972 439.511 195.148C440.856 194.314 442.328 193.898 443.929 193.898C445.15 193.898 446.168 194.106 446.983 194.523C447.806 194.93 448.469 195.441 448.971 196.057C449.483 196.663 449.871 197.259 450.136 197.847H450.321V186.909H456.358V216H450.392V212.506H450.136C449.852 213.112 449.449 213.713 448.929 214.31C448.417 214.897 447.75 215.384 446.926 215.773C446.111 216.161 445.117 216.355 443.943 216.355ZM445.86 211.54C446.836 211.54 447.66 211.275 448.332 210.744C449.014 210.205 449.535 209.452 449.895 208.486C450.264 207.52 450.449 206.388 450.449 205.091C450.449 203.794 450.269 202.667 449.909 201.71C449.549 200.754 449.028 200.015 448.346 199.494C447.664 198.973 446.836 198.713 445.86 198.713C444.866 198.713 444.028 198.983 443.346 199.523C442.664 200.062 442.148 200.811 441.798 201.767C441.448 202.723 441.272 203.831 441.272 205.091C441.272 206.36 441.448 207.482 441.798 208.457C442.158 209.423 442.674 210.181 443.346 210.73C444.028 211.27 444.866 211.54 445.86 211.54ZM461.333 216V194.182H467.199V197.989H467.426C467.824 196.634 468.492 195.612 469.429 194.92C470.367 194.22 471.446 193.869 472.668 193.869C472.971 193.869 473.298 193.888 473.648 193.926C473.998 193.964 474.306 194.016 474.571 194.082V199.452C474.287 199.366 473.894 199.291 473.392 199.224C472.891 199.158 472.431 199.125 472.015 199.125C471.124 199.125 470.329 199.319 469.628 199.707C468.937 200.086 468.388 200.616 467.98 201.298C467.583 201.98 467.384 202.766 467.384 203.656V216H461.333ZM486.542 216.426C484.336 216.426 482.428 215.957 480.818 215.02C479.217 214.073 477.982 212.757 477.11 211.071C476.239 209.376 475.804 207.411 475.804 205.176C475.804 202.922 476.239 200.953 477.11 199.267C477.982 197.572 479.217 196.256 480.818 195.318C482.428 194.371 484.336 193.898 486.542 193.898C488.749 193.898 490.652 194.371 492.252 195.318C493.862 196.256 495.103 197.572 495.974 199.267C496.845 200.953 497.281 202.922 497.281 205.176C497.281 207.411 496.845 209.376 495.974 211.071C495.103 212.757 493.862 214.073 492.252 215.02C490.652 215.957 488.749 216.426 486.542 216.426ZM486.571 211.739C487.574 211.739 488.413 211.455 489.085 210.886C489.757 210.309 490.264 209.523 490.605 208.528C490.955 207.534 491.13 206.402 491.13 205.134C491.13 203.865 490.955 202.733 490.605 201.739C490.264 200.744 489.757 199.958 489.085 199.381C488.413 198.803 487.574 198.514 486.571 198.514C485.557 198.514 484.705 198.803 484.014 199.381C483.332 199.958 482.816 200.744 482.466 201.739C482.125 202.733 481.954 203.865 481.954 205.134C481.954 206.402 482.125 207.534 482.466 208.528C482.816 209.523 483.332 210.309 484.014 210.886C484.705 211.455 485.557 211.739 486.571 211.739ZM501.216 224.182V194.182H507.181V197.847H507.451C507.717 197.259 508.1 196.663 508.602 196.057C509.113 195.441 509.776 194.93 510.591 194.523C511.414 194.106 512.437 193.898 513.659 193.898C515.25 193.898 516.717 194.314 518.062 195.148C519.407 195.972 520.482 197.217 521.287 198.884C522.092 200.541 522.494 202.619 522.494 205.119C522.494 207.553 522.101 209.608 521.315 211.284C520.538 212.951 519.478 214.215 518.133 215.077C516.798 215.929 515.302 216.355 513.645 216.355C512.47 216.355 511.471 216.161 510.647 215.773C509.833 215.384 509.165 214.897 508.645 214.31C508.124 213.713 507.726 213.112 507.451 212.506H507.267V224.182H501.216ZM507.139 205.091C507.139 206.388 507.319 207.52 507.679 208.486C508.038 209.452 508.559 210.205 509.241 210.744C509.923 211.275 510.752 211.54 511.727 211.54C512.712 211.54 513.545 211.27 514.227 210.73C514.909 210.181 515.425 209.423 515.775 208.457C516.135 207.482 516.315 206.36 516.315 205.091C516.315 203.831 516.14 202.723 515.789 201.767C515.439 200.811 514.923 200.062 514.241 199.523C513.559 198.983 512.721 198.713 511.727 198.713C510.742 198.713 509.909 198.973 509.227 199.494C508.555 200.015 508.038 200.754 507.679 201.71C507.319 202.667 507.139 203.794 507.139 205.091ZM539.522 224.182C538.755 224.182 538.035 224.12 537.363 223.997C536.7 223.884 536.15 223.737 535.715 223.557L537.078 219.04C537.789 219.258 538.428 219.376 538.996 219.395C539.574 219.414 540.071 219.281 540.488 218.997C540.914 218.713 541.259 218.23 541.525 217.548L541.88 216.625L534.053 194.182H540.417L544.934 210.205H545.161L549.721 194.182H556.127L547.647 218.358C547.239 219.532 546.685 220.555 545.985 221.426C545.293 222.307 544.417 222.984 543.357 223.457C542.296 223.94 541.018 224.182 539.522 224.182ZM568.378 216.426C566.172 216.426 564.264 215.957 562.654 215.02C561.053 214.073 559.818 212.757 558.946 211.071C558.075 209.376 557.64 207.411 557.64 205.176C557.64 202.922 558.075 200.953 558.946 199.267C559.818 197.572 561.053 196.256 562.654 195.318C564.264 194.371 566.172 193.898 568.378 193.898C570.585 193.898 572.488 194.371 574.088 195.318C575.698 196.256 576.939 197.572 577.81 199.267C578.681 200.953 579.117 202.922 579.117 205.176C579.117 207.411 578.681 209.376 577.81 211.071C576.939 212.757 575.698 214.073 574.088 215.02C572.488 215.957 570.585 216.426 568.378 216.426ZM568.407 211.739C569.41 211.739 570.248 211.455 570.921 210.886C571.593 210.309 572.1 209.523 572.441 208.528C572.791 207.534 572.966 206.402 572.966 205.134C572.966 203.865 572.791 202.733 572.441 201.739C572.1 200.744 571.593 199.958 570.921 199.381C570.248 198.803 569.41 198.514 568.407 198.514C567.393 198.514 566.541 198.803 565.85 199.381C565.168 199.958 564.652 200.744 564.301 201.739C563.961 202.733 563.79 203.865 563.79 205.134C563.79 206.402 563.961 207.534 564.301 208.528C564.652 209.523 565.168 210.309 565.85 210.886C566.541 211.455 567.393 211.739 568.407 211.739ZM597.043 206.71V194.182H603.094V216H597.284V212.037H597.057C596.565 213.315 595.746 214.343 594.6 215.119C593.463 215.896 592.076 216.284 590.438 216.284C588.98 216.284 587.696 215.953 586.588 215.29C585.48 214.627 584.614 213.685 583.989 212.463C583.373 211.241 583.061 209.778 583.051 208.074V194.182H589.103V206.994C589.112 208.282 589.458 209.3 590.14 210.048C590.821 210.796 591.735 211.17 592.881 211.17C593.61 211.17 594.292 211.005 594.926 210.673C595.561 210.332 596.072 209.83 596.461 209.168C596.858 208.505 597.052 207.686 597.043 206.71ZM607.934 216V194.182H613.801V197.989H614.028C614.426 196.634 615.093 195.612 616.031 194.92C616.968 194.22 618.048 193.869 619.27 193.869C619.573 193.869 619.899 193.888 620.25 193.926C620.6 193.964 620.908 194.016 621.173 194.082V199.452C620.889 199.366 620.496 199.291 619.994 199.224C619.492 199.158 619.033 199.125 618.616 199.125C617.726 199.125 616.931 199.319 616.23 199.707C615.538 200.086 614.989 200.616 614.582 201.298C614.184 201.98 613.985 202.766 613.985 203.656V216H607.934ZM254.184 245.094H247.963C247.849 244.289 247.617 243.574 247.267 242.949C246.916 242.314 246.467 241.775 245.917 241.33C245.368 240.884 244.734 240.544 244.014 240.307C243.304 240.07 242.532 239.952 241.699 239.952C240.193 239.952 238.881 240.326 237.764 241.074C236.646 241.812 235.78 242.892 235.164 244.312C234.549 245.723 234.241 247.437 234.241 249.455C234.241 251.528 234.549 253.271 235.164 254.682C235.789 256.093 236.661 257.158 237.778 257.878C238.895 258.598 240.188 258.957 241.656 258.957C242.48 258.957 243.242 258.848 243.943 258.631C244.653 258.413 245.283 258.096 245.832 257.679C246.381 257.253 246.836 256.737 247.196 256.131C247.565 255.525 247.821 254.833 247.963 254.057L254.184 254.085C254.023 255.42 253.621 256.708 252.977 257.949C252.342 259.18 251.485 260.283 250.406 261.259C249.336 262.224 248.057 262.991 246.571 263.56C245.093 264.118 243.422 264.398 241.556 264.398C238.962 264.398 236.642 263.811 234.596 262.636C232.56 261.462 230.95 259.762 229.767 257.537C228.592 255.312 228.005 252.617 228.005 249.455C228.005 246.282 228.602 243.583 229.795 241.358C230.988 239.133 232.608 237.437 234.653 236.273C236.699 235.098 239 234.511 241.556 234.511C243.242 234.511 244.805 234.748 246.244 235.222C247.693 235.695 248.976 236.386 250.093 237.295C251.211 238.195 252.12 239.298 252.821 240.605C253.531 241.912 253.985 243.408 254.184 245.094ZM264.532 234.909V264H258.481V234.909H264.532ZM269.38 264V242.182H275.431V264H269.38ZM272.419 239.369C271.52 239.369 270.748 239.071 270.104 238.474C269.47 237.868 269.152 237.144 269.152 236.301C269.152 235.468 269.47 234.753 270.104 234.156C270.748 233.55 271.52 233.247 272.419 233.247C273.319 233.247 274.086 233.55 274.721 234.156C275.364 234.753 275.686 235.468 275.686 236.301C275.686 237.144 275.364 237.868 274.721 238.474C274.086 239.071 273.319 239.369 272.419 239.369ZM280.278 272.182V242.182H286.244V245.847H286.514C286.779 245.259 287.163 244.663 287.664 244.057C288.176 243.441 288.839 242.93 289.653 242.523C290.477 242.106 291.5 241.898 292.721 241.898C294.312 241.898 295.78 242.314 297.125 243.148C298.469 243.972 299.544 245.217 300.349 246.884C301.154 248.541 301.556 250.619 301.556 253.119C301.556 255.553 301.163 257.608 300.377 259.284C299.601 260.951 298.54 262.215 297.196 263.077C295.86 263.929 294.364 264.355 292.707 264.355C291.533 264.355 290.534 264.161 289.71 263.773C288.895 263.384 288.228 262.897 287.707 262.31C287.186 261.713 286.788 261.112 286.514 260.506H286.329V272.182H280.278ZM286.201 253.091C286.201 254.388 286.381 255.52 286.741 256.486C287.101 257.452 287.622 258.205 288.304 258.744C288.985 259.275 289.814 259.54 290.789 259.54C291.774 259.54 292.608 259.27 293.289 258.73C293.971 258.181 294.487 257.423 294.838 256.457C295.198 255.482 295.377 254.36 295.377 253.091C295.377 251.831 295.202 250.723 294.852 249.767C294.502 248.811 293.985 248.062 293.304 247.523C292.622 246.983 291.784 246.713 290.789 246.713C289.805 246.713 288.971 246.973 288.289 247.494C287.617 248.015 287.101 248.754 286.741 249.71C286.381 250.667 286.201 251.794 286.201 253.091ZM305.704 264V234.909H311.755V245.847H311.94C312.205 245.259 312.589 244.663 313.091 244.057C313.602 243.441 314.265 242.93 315.079 242.523C315.903 242.106 316.926 241.898 318.147 241.898C319.738 241.898 321.206 242.314 322.551 243.148C323.895 243.972 324.97 245.217 325.775 246.884C326.58 248.541 326.983 250.619 326.983 253.119C326.983 255.553 326.59 257.608 325.804 259.284C325.027 260.951 323.967 262.215 322.622 263.077C321.287 263.929 319.79 264.355 318.133 264.355C316.959 264.355 315.96 264.161 315.136 263.773C314.322 263.384 313.654 262.897 313.133 262.31C312.612 261.713 312.215 261.112 311.94 260.506H311.67V264H305.704ZM311.627 253.091C311.627 254.388 311.807 255.52 312.167 256.486C312.527 257.452 313.048 258.205 313.73 258.744C314.412 259.275 315.24 259.54 316.216 259.54C317.2 259.54 318.034 259.27 318.716 258.73C319.397 258.181 319.913 257.423 320.264 256.457C320.624 255.482 320.804 254.36 320.804 253.091C320.804 251.831 320.628 250.723 320.278 249.767C319.928 248.811 319.412 248.062 318.73 247.523C318.048 246.983 317.21 246.713 316.216 246.713C315.231 246.713 314.397 246.973 313.716 247.494C313.043 248.015 312.527 248.754 312.167 249.71C311.807 250.667 311.627 251.794 311.627 253.091ZM340.878 264.426C338.672 264.426 336.764 263.957 335.154 263.02C333.553 262.073 332.318 260.757 331.446 259.071C330.575 257.376 330.14 255.411 330.14 253.176C330.14 250.922 330.575 248.953 331.446 247.267C332.318 245.572 333.553 244.256 335.154 243.318C336.764 242.371 338.672 241.898 340.878 241.898C343.085 241.898 344.988 242.371 346.588 243.318C348.198 244.256 349.439 245.572 350.31 247.267C351.181 248.953 351.617 250.922 351.617 253.176C351.617 255.411 351.181 257.376 350.31 259.071C349.439 260.757 348.198 262.073 346.588 263.02C344.988 263.957 343.085 264.426 340.878 264.426ZM340.907 259.739C341.91 259.739 342.748 259.455 343.421 258.886C344.093 258.309 344.6 257.523 344.941 256.528C345.291 255.534 345.466 254.402 345.466 253.134C345.466 251.865 345.291 250.733 344.941 249.739C344.6 248.744 344.093 247.958 343.421 247.381C342.748 246.803 341.91 246.514 340.907 246.514C339.893 246.514 339.041 246.803 338.35 247.381C337.668 247.958 337.152 248.744 336.801 249.739C336.461 250.733 336.29 251.865 336.29 253.134C336.29 254.402 336.461 255.534 336.801 256.528C337.152 257.523 337.668 258.309 338.35 258.886C339.041 259.455 339.893 259.739 340.907 259.739ZM361.773 264.412C360.381 264.412 359.141 264.17 358.051 263.688C356.962 263.195 356.101 262.471 355.466 261.514C354.841 260.548 354.529 259.346 354.529 257.906C354.529 256.694 354.751 255.676 355.196 254.852C355.641 254.028 356.248 253.366 357.015 252.864C357.782 252.362 358.653 251.983 359.628 251.727C360.613 251.472 361.645 251.292 362.725 251.188C363.994 251.055 365.016 250.932 365.793 250.818C366.569 250.695 367.133 250.515 367.483 250.278C367.834 250.042 368.009 249.691 368.009 249.227V249.142C368.009 248.242 367.725 247.546 367.157 247.054C366.598 246.562 365.802 246.315 364.77 246.315C363.681 246.315 362.815 246.557 362.171 247.04C361.527 247.513 361.101 248.11 360.892 248.83L355.296 248.375C355.58 247.049 356.139 245.903 356.972 244.938C357.805 243.962 358.88 243.214 360.196 242.693C361.522 242.163 363.056 241.898 364.799 241.898C366.011 241.898 367.171 242.04 368.279 242.324C369.396 242.608 370.386 243.048 371.248 243.645C372.119 244.241 372.805 245.009 373.307 245.946C373.809 246.874 374.06 247.987 374.06 249.284V264H368.321V260.974H368.151C367.801 261.656 367.332 262.258 366.745 262.778C366.158 263.29 365.452 263.692 364.628 263.986C363.804 264.27 362.853 264.412 361.773 264.412ZM363.506 260.236C364.396 260.236 365.182 260.061 365.864 259.71C366.546 259.35 367.081 258.867 367.469 258.261C367.857 257.655 368.051 256.969 368.051 256.202V253.886C367.862 254.009 367.602 254.123 367.27 254.227C366.948 254.322 366.584 254.412 366.176 254.497C365.769 254.573 365.362 254.644 364.955 254.71C364.548 254.767 364.178 254.819 363.847 254.866C363.137 254.971 362.516 255.136 361.986 255.364C361.456 255.591 361.044 255.899 360.75 256.287C360.457 256.666 360.31 257.139 360.31 257.707C360.31 258.531 360.608 259.161 361.205 259.597C361.811 260.023 362.578 260.236 363.506 260.236ZM378.755 264V242.182H384.621V245.989H384.848C385.246 244.634 385.914 243.612 386.851 242.92C387.789 242.22 388.868 241.869 390.09 241.869C390.393 241.869 390.72 241.888 391.07 241.926C391.42 241.964 391.728 242.016 391.993 242.082V247.452C391.709 247.366 391.316 247.291 390.814 247.224C390.312 247.158 389.853 247.125 389.436 247.125C388.546 247.125 387.751 247.319 387.05 247.707C386.359 248.086 385.81 248.616 385.402 249.298C385.005 249.98 384.806 250.766 384.806 251.656V264H378.755ZM402.146 264.355C400.489 264.355 398.988 263.929 397.643 263.077C396.308 262.215 395.247 260.951 394.461 259.284C393.685 257.608 393.297 255.553 393.297 253.119C393.297 250.619 393.699 248.541 394.504 246.884C395.309 245.217 396.379 243.972 397.714 243.148C399.059 242.314 400.531 241.898 402.132 241.898C403.353 241.898 404.371 242.106 405.186 242.523C406.01 242.93 406.672 243.441 407.174 244.057C407.686 244.663 408.074 245.259 408.339 245.847H408.524V234.909H414.561V264H408.595V260.506H408.339C408.055 261.112 407.653 261.713 407.132 262.31C406.62 262.897 405.953 263.384 405.129 263.773C404.315 264.161 403.32 264.355 402.146 264.355ZM404.064 259.54C405.039 259.54 405.863 259.275 406.535 258.744C407.217 258.205 407.738 257.452 408.098 256.486C408.467 255.52 408.652 254.388 408.652 253.091C408.652 251.794 408.472 250.667 408.112 249.71C407.752 248.754 407.231 248.015 406.549 247.494C405.868 246.973 405.039 246.713 404.064 246.713C403.069 246.713 402.231 246.983 401.549 247.523C400.868 248.062 400.351 248.811 400.001 249.767C399.651 250.723 399.475 251.831 399.475 253.091C399.475 254.36 399.651 255.482 400.001 256.457C400.361 257.423 400.877 258.181 401.549 258.73C402.231 259.27 403.069 259.54 404.064 259.54ZM424.607 234.909V237.977C424.607 238.848 424.436 239.739 424.096 240.648C423.764 241.547 423.319 242.4 422.76 243.205C422.202 244 421.591 244.677 420.928 245.236L418.257 243.659C418.731 242.911 419.148 242.082 419.507 241.173C419.877 240.264 420.061 239.208 420.061 238.006V234.909H424.607ZM444.056 248.403L438.517 248.744C438.422 248.271 438.218 247.845 437.906 247.466C437.593 247.078 437.181 246.77 436.67 246.543C436.168 246.306 435.567 246.188 434.866 246.188C433.929 246.188 433.138 246.386 432.494 246.784C431.85 247.172 431.528 247.693 431.528 248.347C431.528 248.867 431.736 249.308 432.153 249.668C432.57 250.027 433.285 250.316 434.298 250.534L438.247 251.33C440.368 251.765 441.949 252.466 442.991 253.432C444.033 254.398 444.554 255.667 444.554 257.239C444.554 258.669 444.132 259.923 443.289 261.003C442.456 262.082 441.31 262.925 439.852 263.531C438.403 264.128 436.732 264.426 434.838 264.426C431.949 264.426 429.648 263.825 427.934 262.622C426.23 261.41 425.231 259.762 424.937 257.679L430.889 257.366C431.069 258.247 431.504 258.92 432.196 259.384C432.887 259.838 433.772 260.065 434.852 260.065C435.913 260.065 436.765 259.862 437.409 259.455C438.062 259.038 438.394 258.503 438.403 257.849C438.394 257.3 438.162 256.85 437.707 256.5C437.252 256.14 436.552 255.866 435.605 255.676L431.826 254.923C429.696 254.497 428.109 253.759 427.068 252.707C426.036 251.656 425.52 250.316 425.52 248.688C425.52 247.286 425.898 246.079 426.656 245.065C427.423 244.052 428.498 243.271 429.88 242.722C431.272 242.172 432.901 241.898 434.767 241.898C437.522 241.898 439.691 242.48 441.272 243.645C442.863 244.81 443.791 246.396 444.056 248.403ZM457.622 264V242.182H463.673V264H457.622ZM460.662 239.369C459.762 239.369 458.99 239.071 458.346 238.474C457.712 237.868 457.395 237.144 457.395 236.301C457.395 235.468 457.712 234.753 458.346 234.156C458.99 233.55 459.762 233.247 460.662 233.247C461.561 233.247 462.328 233.55 462.963 234.156C463.607 234.753 463.929 235.468 463.929 236.301C463.929 237.144 463.607 237.868 462.963 238.474C462.328 239.071 461.561 239.369 460.662 239.369ZM468.52 264V242.182H474.287V246.031H474.543C474.998 244.753 475.755 243.744 476.816 243.006C477.876 242.267 479.145 241.898 480.623 241.898C482.119 241.898 483.392 242.272 484.444 243.02C485.495 243.759 486.195 244.762 486.546 246.031H486.773C487.218 244.781 488.023 243.782 489.188 243.034C490.362 242.277 491.749 241.898 493.35 241.898C495.386 241.898 497.038 242.546 498.307 243.844C499.586 245.132 500.225 246.959 500.225 249.327V264H494.188V250.52C494.188 249.308 493.866 248.399 493.222 247.793C492.578 247.187 491.773 246.884 490.807 246.884C489.709 246.884 488.852 247.234 488.236 247.935C487.621 248.626 487.313 249.54 487.313 250.676V264H481.446V250.392C481.446 249.322 481.139 248.47 480.523 247.835C479.917 247.201 479.117 246.884 478.123 246.884C477.45 246.884 476.844 247.054 476.304 247.395C475.774 247.726 475.353 248.195 475.04 248.801C474.728 249.398 474.571 250.098 474.571 250.903V264H468.52ZM511.226 264.412C509.834 264.412 508.594 264.17 507.505 263.688C506.416 263.195 505.554 262.471 504.919 261.514C504.294 260.548 503.982 259.346 503.982 257.906C503.982 256.694 504.204 255.676 504.65 254.852C505.095 254.028 505.701 253.366 506.468 252.864C507.235 252.362 508.106 251.983 509.081 251.727C510.066 251.472 511.098 251.292 512.178 251.188C513.447 251.055 514.47 250.932 515.246 250.818C516.023 250.695 516.586 250.515 516.936 250.278C517.287 250.042 517.462 249.691 517.462 249.227V249.142C517.462 248.242 517.178 247.546 516.61 247.054C516.051 246.562 515.256 246.315 514.223 246.315C513.134 246.315 512.268 246.557 511.624 247.04C510.98 247.513 510.554 248.11 510.346 248.83L504.749 248.375C505.033 247.049 505.592 245.903 506.425 244.938C507.258 243.962 508.333 243.214 509.65 242.693C510.975 242.163 512.509 241.898 514.252 241.898C515.464 241.898 516.624 242.04 517.732 242.324C518.849 242.608 519.839 243.048 520.701 243.645C521.572 244.241 522.258 245.009 522.76 245.946C523.262 246.874 523.513 247.987 523.513 249.284V264H517.775V260.974H517.604C517.254 261.656 516.785 262.258 516.198 262.778C515.611 263.29 514.905 263.692 514.081 263.986C513.257 264.27 512.306 264.412 511.226 264.412ZM512.959 260.236C513.849 260.236 514.635 260.061 515.317 259.71C515.999 259.35 516.534 258.867 516.922 258.261C517.31 257.655 517.505 256.969 517.505 256.202V253.886C517.315 254.009 517.055 254.123 516.723 254.227C516.401 254.322 516.037 254.412 515.63 254.497C515.222 254.573 514.815 254.644 514.408 254.71C514.001 254.767 513.632 254.819 513.3 254.866C512.59 254.971 511.97 255.136 511.439 255.364C510.909 255.591 510.497 255.899 510.203 256.287C509.91 256.666 509.763 257.139 509.763 257.707C509.763 258.531 510.061 259.161 510.658 259.597C511.264 260.023 512.031 260.236 512.959 260.236ZM538.037 272.636C536.077 272.636 534.396 272.366 532.995 271.827C531.603 271.296 530.495 270.572 529.671 269.653C528.847 268.735 528.312 267.703 528.066 266.557L533.662 265.804C533.833 266.24 534.103 266.647 534.472 267.026C534.841 267.404 535.329 267.707 535.935 267.935C536.551 268.171 537.299 268.29 538.179 268.29C539.496 268.29 540.58 267.968 541.432 267.324C542.294 266.689 542.725 265.624 542.725 264.128V260.136H542.469C542.204 260.742 541.806 261.315 541.276 261.855C540.746 262.395 540.064 262.835 539.23 263.176C538.397 263.517 537.403 263.688 536.248 263.688C534.609 263.688 533.118 263.309 531.773 262.551C530.438 261.784 529.373 260.615 528.577 259.043C527.791 257.461 527.398 255.463 527.398 253.048C527.398 250.577 527.801 248.512 528.605 246.855C529.41 245.198 530.48 243.957 531.816 243.134C533.16 242.31 534.633 241.898 536.233 241.898C537.455 241.898 538.478 242.106 539.301 242.523C540.125 242.93 540.788 243.441 541.29 244.057C541.801 244.663 542.194 245.259 542.469 245.847H542.696V242.182H548.705V264.213C548.705 266.069 548.25 267.622 547.341 268.872C546.432 270.122 545.173 271.06 543.563 271.685C541.962 272.319 540.121 272.636 538.037 272.636ZM538.165 259.142C539.141 259.142 539.964 258.901 540.637 258.418C541.319 257.925 541.839 257.224 542.199 256.315C542.569 255.397 542.753 254.298 542.753 253.02C542.753 251.741 542.573 250.634 542.213 249.696C541.854 248.749 541.333 248.015 540.651 247.494C539.969 246.973 539.141 246.713 538.165 246.713C537.171 246.713 536.333 246.983 535.651 247.523C534.969 248.053 534.453 248.792 534.103 249.739C533.752 250.686 533.577 251.779 533.577 253.02C533.577 254.279 533.752 255.368 534.103 256.287C534.462 257.196 534.979 257.902 535.651 258.403C536.333 258.896 537.171 259.142 538.165 259.142ZM563.463 264.426C561.219 264.426 559.287 263.972 557.668 263.062C556.058 262.144 554.818 260.847 553.946 259.17C553.075 257.485 552.64 255.491 552.64 253.19C552.64 250.946 553.075 248.976 553.946 247.281C554.818 245.586 556.044 244.265 557.625 243.318C559.216 242.371 561.082 241.898 563.222 241.898C564.661 241.898 566.001 242.13 567.242 242.594C568.492 243.048 569.581 243.735 570.509 244.653C571.446 245.572 572.176 246.727 572.696 248.119C573.217 249.502 573.478 251.121 573.478 252.977V254.639H555.054V250.889H567.782C567.782 250.018 567.592 249.246 567.213 248.574C566.835 247.902 566.309 247.376 565.637 246.997C564.974 246.609 564.202 246.415 563.321 246.415C562.403 246.415 561.588 246.628 560.878 247.054C560.177 247.471 559.628 248.034 559.23 248.744C558.833 249.445 558.629 250.226 558.62 251.088V254.653C558.62 255.733 558.819 256.666 559.216 257.452C559.623 258.238 560.196 258.844 560.935 259.27C561.674 259.696 562.55 259.909 563.563 259.909C564.235 259.909 564.851 259.814 565.409 259.625C565.968 259.436 566.446 259.152 566.844 258.773C567.242 258.394 567.545 257.93 567.753 257.381L573.35 257.75C573.066 259.095 572.483 260.269 571.603 261.273C570.731 262.267 569.605 263.044 568.222 263.602C566.849 264.152 565.263 264.426 563.463 264.426Z" fill="#17106D"/>
</svg>
