<svg xmlns="http://www.w3.org/2000/svg" xmlns:xlink="http://www.w3.org/1999/xlink" width="600" height="400" viewBox="0 0 600 400"><rect width="100%" height="100%" fill="#EEE"/><path d="M153.71 170.72L136.34 191.98L134.31 194.49Q136.02 193.64 137.98 193.18Q139.94 192.71 142.21 192.71L142.21 192.71Q145.53 192.71 148.67 193.80Q151.81 194.90 154.20 197.10Q156.59 199.31 158.05 202.59Q159.51 205.87 159.51 210.25L159.51 210.25Q159.51 214.34 158.01 217.92Q156.51 221.51 153.79 224.18Q151.08 226.85 147.25 228.39Q143.43 229.93 138.81 229.93L138.81 229.93Q134.11 229.93 130.39 228.43Q126.66 226.93 124.03 224.24Q121.39 221.55 120.00 217.76Q118.60 213.97 118.60 209.36L118.60 209.36Q118.60 205.22 120.28 200.87Q121.96 196.52 125.49 191.82L125.49 191.82L139.46 173.07Q140.19 172.10 141.58 171.41Q142.98 170.72 144.80 170.72L144.80 170.72L153.71 170.72ZM138.61 221.75L138.61 221.75Q141.00 221.75 143.00 220.94Q145.01 220.13 146.44 218.67Q147.88 217.21 148.69 215.25Q149.50 213.28 149.50 210.98L149.50 210.98Q149.50 208.46 148.73 206.46Q147.96 204.45 146.55 203.06Q145.13 201.66 143.14 200.93Q141.16 200.20 138.77 200.20L138.77 200.20Q136.38 200.20 134.44 201.01Q132.49 201.82 131.11 203.26Q129.74 204.70 128.97 206.66Q128.20 208.63 128.20 210.89L128.20 210.89Q128.20 213.32 128.87 215.33Q129.54 217.33 130.85 218.75Q132.17 220.17 134.11 220.96Q136.06 221.75 138.61 221.75ZM207.13 200L207.13 200Q207.13 207.65 205.49 213.30Q203.85 218.95 200.96 222.64Q198.06 226.32 194.11 228.13Q190.16 229.93 185.59 229.93L185.59 229.93Q181.01 229.93 177.10 228.13Q173.19 226.32 170.32 222.64Q167.44 218.95 165.82 213.30Q164.20 207.65 164.20 200L164.20 200Q164.20 192.31 165.82 186.68Q167.44 181.05 170.32 177.36Q173.19 173.67 177.10 171.87Q181.01 170.07 185.59 170.07L185.59 170.07Q190.16 170.07 194.11 171.87Q198.06 173.67 200.96 177.36Q203.85 181.05 205.49 186.68Q207.13 192.31 207.13 200ZM196.81 200L196.81 200Q196.81 193.64 195.87 189.47Q194.94 185.30 193.38 182.83Q191.82 180.36 189.80 179.37Q187.77 178.37 185.59 178.37L185.59 178.37Q183.44 178.37 181.44 179.37Q179.43 180.36 177.89 182.83Q176.35 185.30 175.44 189.47Q174.53 193.64 174.53 200L174.53 200Q174.53 206.36 175.44 210.53Q176.35 214.70 177.89 217.17Q179.43 219.64 181.44 220.63Q183.44 221.63 185.59 221.63L185.59 221.63Q187.77 221.63 189.80 220.63Q191.82 219.64 193.38 217.17Q194.94 214.70 195.87 210.53Q196.81 206.36 196.81 200ZM254.11 200L254.11 200Q254.11 207.65 252.47 213.30Q250.83 218.95 247.94 222.64Q245.04 226.32 241.09 228.13Q237.14 229.93 232.57 229.93L232.57 229.93Q227.99 229.93 224.08 228.13Q220.17 226.32 217.30 222.64Q214.42 218.95 212.80 213.30Q211.18 207.65 211.18 200L211.18 200Q211.18 192.31 212.80 186.68Q214.42 181.05 217.30 177.36Q220.17 173.67 224.08 171.87Q227.99 170.07 232.57 170.07L232.57 170.07Q237.14 170.07 241.09 171.87Q245.04 173.67 247.94 177.36Q250.83 181.05 252.47 186.68Q254.11 192.31 254.11 200ZM243.79 200L243.79 200Q243.79 193.64 242.85 189.47Q241.92 185.30 240.36 182.83Q238.80 180.36 236.78 179.37Q234.75 178.37 232.57 178.37L232.57 178.37Q230.42 178.37 228.42 179.37Q226.41 180.36 224.87 182.83Q223.33 185.30 222.42 189.47Q221.51 193.64 221.51 200L221.51 200Q221.51 206.36 222.42 210.53Q223.33 214.70 224.87 217.17Q226.41 219.64 228.42 220.63Q230.42 221.63 232.57 221.63L232.57 221.63Q234.75 221.63 236.78 220.63Q238.80 219.64 240.36 217.17Q241.92 214.70 242.85 210.53Q243.79 206.36 243.79 200ZM318.43 215.88L313.12 221.10L299.39 207.37L285.54 221.18L280.24 215.96L294.09 202.07L280.88 188.86L286.15 183.60L299.35 196.80L312.47 183.68L317.82 188.94L304.66 202.11L318.43 215.88ZM353.50 207.21L371.32 207.21L371.32 188.05Q371.32 185.34 371.69 182.06L371.69 182.06L353.50 207.21ZM380.03 207.21L387.40 207.21L387.40 213.00Q387.40 213.81 386.87 214.40Q386.35 214.98 385.37 214.98L385.37 214.98L380.03 214.98L380.03 229.28L371.32 229.28L371.32 214.98L346.62 214.98Q345.60 214.98 344.83 214.36Q344.06 213.73 343.86 212.80L343.86 212.80L342.81 207.74L370.55 170.68L380.03 170.68L380.03 207.21ZM434.42 200L434.42 200Q434.42 207.65 432.78 213.30Q431.14 218.95 428.24 222.64Q425.35 226.32 421.40 228.13Q417.45 229.93 412.87 229.93L412.87 229.93Q408.30 229.93 404.39 228.13Q400.48 226.32 397.61 222.64Q394.73 218.95 393.11 213.30Q391.49 207.65 391.49 200L391.49 200Q391.49 192.31 393.11 186.68Q394.73 181.05 397.61 177.36Q400.48 173.67 404.39 171.87Q408.30 170.07 412.87 170.07L412.87 170.07Q417.45 170.07 421.40 171.87Q425.35 173.67 428.24 177.36Q431.14 181.05 432.78 186.68Q434.42 192.31 434.42 200ZM424.09 200L424.09 200Q424.09 193.64 423.16 189.47Q422.23 185.30 420.67 182.83Q419.11 180.36 417.09 179.37Q415.06 178.37 412.87 178.37L412.87 178.37Q410.73 178.37 408.72 179.37Q406.72 180.36 405.18 182.83Q403.64 185.30 402.73 189.47Q401.82 193.64 401.82 200L401.82 200Q401.82 206.36 402.73 210.53Q403.64 214.70 405.18 217.17Q406.72 219.64 408.72 220.63Q410.73 221.63 412.87 221.63L412.87 221.63Q415.06 221.63 417.09 220.63Q419.11 219.64 420.67 217.17Q422.23 214.70 423.16 210.53Q424.09 206.36 424.09 200ZM481.40 200L481.40 200Q481.40 207.65 479.76 213.30Q478.12 218.95 475.22 222.64Q472.33 226.32 468.38 228.13Q464.43 229.93 459.85 229.93L459.85 229.93Q455.28 229.93 451.37 228.13Q447.46 226.32 444.59 222.64Q441.71 218.95 440.09 213.30Q438.47 207.65 438.47 200L438.47 200Q438.47 192.31 440.09 186.68Q441.71 181.05 444.59 177.36Q447.46 173.67 451.37 171.87Q455.28 170.07 459.85 170.07L459.85 170.07Q464.43 170.07 468.38 171.87Q472.33 173.67 475.22 177.36Q478.12 181.05 479.76 186.68Q481.40 192.31 481.40 200ZM471.07 200L471.07 200Q471.07 193.64 470.14 189.47Q469.21 185.30 467.65 182.83Q466.09 180.36 464.07 179.37Q462.04 178.37 459.85 178.37L459.85 178.37Q457.71 178.37 455.70 179.37Q453.70 180.36 452.16 182.83Q450.62 185.30 449.71 189.47Q448.80 193.64 448.80 200L448.80 200Q448.80 206.36 449.71 210.53Q450.62 214.70 452.16 217.17Q453.70 219.64 455.70 220.63Q457.71 221.63 459.85 221.63L459.85 221.63Q462.04 221.63 464.07 220.63Q466.09 219.64 467.65 217.17Q469.21 214.70 470.14 210.53Q471.07 206.36 471.07 200Z" fill="#31343C"/></svg>